inDegrees=yes
name=ik_Shooting_orientations
DataType=double
version=3
OpenSimVersion=4.3-2021-08-27-4bc7ad9
endheader
time	pelvis_tilt	pelvis_list	pelvis_rotation	pelvis_tx	pelvis_ty	pelvis_tz	hip_flexion_r	hip_adduction_r	hip_rotation_r	knee_angle_r	knee_angle_r_beta	ankle_angle_r	subtalar_angle_r	mtp_angle_r	hip_flexion_l	hip_adduction_l	hip_rotation_l	knee_angle_l	knee_angle_l_beta	ankle_angle_l	subtalar_angle_l	mtp_angle_l	lumbar_extension	lumbar_bending	lumbar_rotation	arm_flex_r	arm_add_r	arm_rot_r	elbow_flex_r	pro_sup_r	wrist_flex_r	wrist_dev_r	arm_flex_l	arm_add_l	arm_rot_l	elbow_flex_l	pro_sup_l	wrist_flex_l	wrist_dev_l
12.17	5.721586693866232	5.148308807702226	61.89875927650979	0	0.9399999999999999	0	45.00000011886165	-9.999999988573334	0	60.00014061962228	1.047200005471999	-4.999999851047217	0	0	45.00000011886165	-9.999999988573334	0	60.00014061962228	1.047200005471999	-4.999999851047217	0	0	-5.302040389237147	1.369038926046492	0.1042536665149808	74.47063974619175	-27.53461839048406	-72.02738501878065	0.01512385462521806	45.00000025534055	0	0	0	-14.99999998953148	0	75.00017584614761	45.00000025534055	0	0
12.18	5.716807522303118	5.135811654766381	61.88607974423471	0	0.9399999999999999	0	45.00000011886165	-9.999999988573334	0	60.00014061962228	1.047200005471999	-4.999999851047217	0	0	45.00000011886165	-9.999999988573334	0	60.00014061962228	1.047200005471999	-4.999999851047217	0	0	-5.289564876916143	1.372479738572276	0.1287823426762535	71.53619161988151	22.12260151912911	-20.14436242743427	27.91700238829255	45.00000025534055	0	0	0	-14.99999998953665	0	75.00017584614761	45.00000025534055	0	0
12.19	5.709033332000755	5.134147511976035	61.87396496947376	0	0.9399999999999999	0	45.00000011886165	-9.999999988573334	0	60.00014061962228	1.047200005471999	-4.999999851047217	0	0	45.00000011886165	-9.999999988573334	0	60.00014061962228	1.047200005471999	-4.999999851047217	0	0	-5.279725054940011	1.347580744100885	0.112447558910752	81.46554641082339	11.4259384231439	-40.33110562768694	57.7878821329507	45.00000025534055	0	0	0	-14.99999998953848	0	75.00017584614761	45.00000025534055	0	0
12.2	5.699896037361496	5.122843874897839	61.8792463973891	0	0.9399999999999999	0	45.00000011886165	-9.999999988573334	0	60.00014061962228	1.047200005471999	-4.999999851047217	0	0	45.00000011886165	-9.999999988573334	0	60.00014061962228	1.047200005471999	-4.999999851047217	0	0	-2.493780283036095	-1.361293123651012	0.1003178416769792	89.95696649056016	-44.34139086435784	75.37709199505396	79.84719617464073	45.00000025534055	0	0	0	-14.99999998954274	0	75.00017584614761	45.00000025534055	0	0
12.21	5.701850137756258	5.108100986707029	61.87466939187046	0	0.9399999999999999	0	45.00000011886165	-9.999999988573334	0	60.00014061962228	1.047200005471999	-4.999999851047217	0	0	45.00000011886165	-9.999999988573334	0	60.00014061962228	1.047200005471999	-4.999999851047217	0	0	-5.256264142038117	1.357219602761594	0.08803137900430903	71.29308783059601	-26.60787431926217	35.27152024432685	37.91558582143665	45.00000025534055	0	0	0	-14.99999998954605	0	75.00017584614761	45.00000025534055	0	0
12.22	5.698646757454906	5.112436300317009	61.87020174027403	0	0.9399999999999999	0	45.00000011886165	-9.999999988573334	0	60.00014061962228	1.047200005471999	-4.999999851047217	0	0	45.00000011886165	-9.999999988573334	0	60.00014061962228	1.047200005471999	-4.999999851047217	0	0	1.011164089184607	-10.82515852361082	0.6080114808649216	89.98071302062897	-63.08238116239831	54.30209135974691	86.48577819467688	45.00000025534055	0	0	0	-14.99999998954681	0	75.00017584614761	45.00000025534055	0	0
12.23	5.697196748808735	5.107402712451811	61.85860297129709	0	0.9399999999999999	0	45.00000011886165	-9.999999988573334	0	60.00014061962228	1.047200005471999	-4.999999851047217	0	0	45.00000011886165	-9.999999988573334	0	60.00014061962228	1.047200005471999	-4.999999851047217	0	0	-5.276680294755526	1.329707774636946	0.06243939019921439	14.97433067823231	-78.58348624381725	11.51274624369023	0.002526261729227235	45.00000025534056	0	0	0	-14.99999998955102	0	75.00017584614761	45.00000025534056	0	0
12.24	5.691471392779762	5.092879622288669	61.85485222272339	0	0.9399999999999999	0	45.00000011886165	-9.999999988573334	0	60.00014061962228	1.047200005471999	-4.999999851047217	0	0	45.00000011886165	-9.999999988573334	0	60.00014061962228	1.047200005471999	-4.999999851047217	0	0	-5.278304491191238	0.7920660182761593	-6.35824077772405	75.31998855289723	-119.9812055141943	89.77869538501898	0.00128842475125347	45.00000025534056	0	0	0	-14.99999998955137	0	75.00017584614761	45.00000025534056	0	0
12.25	5.69959743524126	5.090563043166567	61.85634047832311	0	0.9399999999999999	0	45.00000011886165	-9.999999988573334	0	60.00014061962228	1.047200005471999	-4.999999851047217	0	0	45.00000011886165	-9.999999988573334	0	60.00014061962228	1.047200005471999	-4.999999851047217	0	0	-5.157728036346438	0.2413166417045512	0.05727475556585575	88.92172066132287	-84.09941924905979	60.00443557787239	0.003825513251252845	45.00000025534056	0	0	0	-14.999999989554	0	75.00017584614761	45.00000025534056	0	0
12.26	5.69423607337404	5.086523902151148	61.85094559805442	0	0.9399999999999999	0	45.00000011886165	-9.999999988573334	0	60.00014061962228	1.047200005471999	-4.999999851047217	0	0	45.00000011886165	-9.999999988573334	0	60.00014061962228	1.047200005471999	-4.999999851047217	0	0	-3.538098294399096	-3.514636509248036	0.08701092879924022	89.93053457709294	-70.52069900584922	15.63630322018243	78.19574034522688	45.00000025534056	0	0	0	-14.99999998955895	0	75.00017584614761	45.00000025534056	0	0
12.27	5.697768523350302	5.082141585392965	61.85044822415746	0	0.9399999999999999	0	45.00000011886165	-9.999999988573334	0	60.00014061962228	1.047200005471999	-4.999999851047217	0	0	45.00000011886165	-9.999999988573334	0	60.00014061962228	1.047200005471999	-4.999999851047217	0	0	-5.263322176083183	1.327840160671765	0.05914866923936231	20.17964433346906	-105.3179815083933	-71.57108227256528	86.45759900740755	45.00000025534056	0	0	0	-14.99999998956292	0	75.00017584614761	45.00000025534056	0	0
12.28	5.697815110781283	5.073733846002765	61.83740041991021	0	0.9399999999999999	0	45.00000011886165	-9.999999988573334	0	60.00014061962228	1.047200005471999	-4.999999851047217	0	0	45.00000011886165	-9.999999988573334	0	60.00014061962228	1.047200005471999	-4.999999851047217	0	0	-5.254165071926147	1.331618021915436	0.03407735359340869	-11.81448200643499	-82.83513131263609	-60.58941048529783	0.003486113937357164	45.00000025534056	0	0	0	-14.99999998956756	0	75.00017584614761	45.00000025534056	0	0
12.29	5.709124764327623	5.060915850887108	61.83380703494984	0	0.9399999999999999	0	45.00000011886165	-9.999999988573334	0	60.00014061962228	1.047200005471999	-4.999999851047217	0	0	45.00000011886165	-9.999999988573334	0	60.00014061962228	1.047200005471999	-4.999999851047217	0	0	-5.233856926922044	1.322081697752858	0.04716986373867055	-62.82724613280175	-48.5790027722656	-85.95654518004669	0.001530461793397733	45.00000025534056	0	0	0	-14.99999998956841	0	75.00017584614761	45.00000025534056	0	0
12.3	5.706373896962994	5.069476712331909	61.81373175274516	0	0.9399999999999999	0	45.00000011886165	-9.999999988573334	0	60.00014061962228	1.047200005471999	-4.999999851047217	0	0	45.00000011886165	-9.999999988573334	0	60.00014061962228	1.047200005471999	-4.999999851047217	0	0	-5.253898797721798	1.321692962130676	0.07638853572647217	-4.417432692251056	-80.06844898829151	-47.97400592500296	0.003233288203199595	45.00000025534056	0	0	0	-14.99999998957147	0	75.00017584614761	45.00000025534056	0	0
12.31	5.700589014729668	5.0734163065839	61.81737928875662	0	0.9399999999999999	0	45.00000011886165	-9.999999988573334	0	60.00014061962228	1.047200005471999	-4.999999851047217	0	0	45.00000011886165	-9.999999988573334	0	60.00014061962228	1.047200005471999	-4.999999851047217	0	0	-5.282753490367551	1.680208327156152	5.108356458707882	-4.087224972022863	-100.76409606983	-89.87334470983662	57.48480195090345	45.00000025534056	0	0	0	-14.99999998957269	0	75.00017584614761	45.00000025534056	0	0
12.32	5.707058237424901	5.061768882845056	61.80988510887354	0	0.9399999999999999	0	45.00000011886165	-9.999999988573334	0	60.00014061962228	1.047200005471999	-4.999999851047217	0	0	45.00000011886165	-9.999999988573334	0	60.00014061962228	1.047200005471999	-4.999999851047217	0	0	-2.753111553745723	-2.305858830719577	0.09280206839549573	89.95217237350657	-55.48345845559375	-30.20909418986716	149.992615743719	45.00000025534056	0	0	0	-14.99999998957799	0	75.00017584614761	45.00000025534056	0	0
12.33	5.704992132145883	5.057883487198905	61.80582279769362	0	0.9399999999999999	0	45.00000011886165	-9.999999988573334	0	60.00014061962228	1.047200005471999	-4.999999851047217	0	0	45.00000011886165	-9.999999988573334	0	60.00014061962228	1.047200005471999	-4.999999851047217	0	0	-4.993410911580384	0.906821034698323	0.05826851948145424	89.57274444656183	-58.20686037036104	-39.70083678163406	149.9872368679938	45.00000025534056	0	0	0	-14.9999999895781	0	75.00017584614761	45.00000025534056	0	0
12.34	5.696782495441672	5.047726117279033	61.80322625324145	0	0.9399999999999999	0	45.00000011886165	-9.999999988573334	0	60.00014061962228	1.047200005471999	-4.999999851047217	0	0	45.00000011886165	-9.999999988573334	0	60.00014061962228	1.047200005471999	-4.999999851047217	0	0	-5.252482608905122	1.390782514133196	0.02828079239196258	68.85191095902326	-93.542865024722	-14.363172047338	0.009169860021600253	45.00000025534055	0	0	0	-14.99999998958593	0	75.00017584614761	45.00000025534055	0	0
12.35	5.696148875922758	5.049765828515626	61.7956998785083	0	0.9399999999999999	0	45.00000011886165	-9.999999988573334	0	60.00014061962228	1.047200005471999	-4.999999851047217	0	0	45.00000011886165	-9.999999988573334	0	60.00014061962228	1.047200005471999	-4.999999851047217	0	0	-5.251048286649632	1.731703122246438	-3.411493805932898	6.583964052981348	-50.28291621253236	-89.946453476024	0.00287270484338785	45.00000025534055	0	0	0	-14.99999998958633	0	75.00017584614761	45.00000025534055	0	0
12.36	5.686378280792788	5.054946665819443	61.79069744243897	0	0.9399999999999999	0	45.00000011886165	-9.999999988573334	0	60.00014061962228	1.047200005471999	-4.999999851047217	0	0	45.00000011886165	-9.999999988573334	0	60.00014061962228	1.047200005471999	-4.999999851047217	0	0	-5.245555872039191	1.298288250420421	0.05502742015053679	82.74507551076211	-40.59164979896501	-56.50432555387295	149.967662785801	45.00000025534055	0	0	0	-14.99999998959071	0	75.00017584614761	45.00000025534055	0	0
12.37	5.676728205094844	5.023452007711396	61.77258745287754	0	0.9399999999999999	0	45.00000011886165	-9.999999988573334	0	60.00014061962228	1.047200005471999	-4.999999851047217	0	0	45.00000011886165	-9.999999988573334	0	60.00014061962228	1.047200005471999	-4.999999851047217	0	0	8.174101145701552	-10.97971048704808	1.214546148252562	89.99096508949238	-43.13742718568035	-24.65874480464685	149.9977044963837	45.00000025534055	0	0	0	-14.99999998959108	0	75.00017584614761	45.00000025534055	0	0
12.38	5.696372744919647	5.014613203212924	61.78425573227297	0	0.9399999999999999	0	45.00000011886165	-9.999999988573334	0	60.00014061962228	1.047200005471999	-4.999999851047217	0	0	45.00000011886165	-9.999999988573334	0	60.00014061962228	1.047200005471999	-4.999999851047217	0	0	12.38860772517968	-8.218407258337491	1.107566707609676	89.99317637065546	-28.92304982740471	-50.44424399138553	149.9977252600094	45.00000025534055	0	0	0	-14.99999998959123	0	75.00017584614761	45.00000025534055	0	0
